<?xml version="1.0" standalone="no"?>
<!DOCTYPE svg PUBLIC "-//W3C//DTD SVG 20010904//EN"
 "http://www.w3.org/TR/2001/REC-SVG-20010904/DTD/svg10.dtd">
<svg version="1.0" xmlns="http://www.w3.org/2000/svg"
 width="260.000000pt" height="260.000000pt" viewBox="0 0 260.000000 260.000000"
 preserveAspectRatio="xMidYMid meet">
<metadata>
Created by potrace 1.11, written by Peter Selinger 2001-2013
</metadata>
<g transform="translate(0.000000,260.000000) scale(0.100000,-0.100000)"
fill="#000000" stroke="none">
<path d="M1150 2593 c-380 -58 -681 -233 -892 -518 -21 -27 -41 -55 -45 -61
-26 -35 -107 -195 -130 -257 -59 -162 -77 -267 -78 -452 0 -200 24 -328 94
-503 72 -180 231 -394 371 -500 19 -15 41 -33 48 -40 24 -22 100 -72 110 -72
6 0 12 -3 14 -8 8 -19 239 -119 318 -137 151 -36 174 -38 335 -39 182 0 266
12 415 61 134 45 322 148 415 228 320 278 479 626 470 1030 -2 77 -8 167 -15
200 -16 86 -50 208 -61 220 -5 5 -9 16 -9 25 0 22 -90 196 -136 261 -212 303
-534 506 -884 556 -39 5 -312 10 -340 6z"/>
</g>
</svg>
